<mxfile host="app.diagrams.net" modified="2020-11-01T07:49:30.484Z" agent="5.0 (Windows NT 10.0; Win64; x64) AppleWebKit/537.36 (KHTML, like Gecko) Chrome/86.0.4240.111 Safari/537.36" etag="Q37mg3i-2ICf4Uauz2yL" version="13.8.8" type="github">
  <diagram id="6LSwC7M0rIFL3SQYA0ja" name="Page-1">
    <mxGraphModel dx="786" dy="406" grid="1" gridSize="10" guides="1" tooltips="1" connect="1" arrows="1" fold="1" page="1" pageScale="1" pageWidth="827" pageHeight="1169" math="0" shadow="0">
      <root>
        <mxCell id="0" />
        <mxCell id="1" parent="0" />
        <mxCell id="3i_acZr-SQVOogtZjHbJ-1" value="" style="rounded=0;whiteSpace=wrap;html=1;dashed=1;fillColor=#d5e8d4;strokeColor=#6666FF;" vertex="1" parent="1">
          <mxGeometry x="210" y="90" width="360" height="250" as="geometry" />
        </mxCell>
        <mxCell id="3i_acZr-SQVOogtZjHbJ-31" value="" style="endArrow=block;html=1;strokeWidth=4;endFill=1;entryX=0.5;entryY=1;entryDx=0;entryDy=0;" edge="1" parent="1" target="3i_acZr-SQVOogtZjHbJ-77">
          <mxGeometry width="50" height="50" relative="1" as="geometry">
            <mxPoint x="230" y="370" as="sourcePoint" />
            <mxPoint x="640" y="290" as="targetPoint" />
            <Array as="points">
              <mxPoint x="230" y="290" />
              <mxPoint x="470" y="290" />
            </Array>
          </mxGeometry>
        </mxCell>
        <mxCell id="3i_acZr-SQVOogtZjHbJ-34" value="" style="endArrow=block;html=1;strokeWidth=4;endFill=1;entryX=0.5;entryY=1;entryDx=0;entryDy=0;" edge="1" parent="1" source="3i_acZr-SQVOogtZjHbJ-2" target="3i_acZr-SQVOogtZjHbJ-39">
          <mxGeometry width="50" height="50" relative="1" as="geometry">
            <mxPoint x="280" y="290" as="sourcePoint" />
            <mxPoint x="280" y="180" as="targetPoint" />
          </mxGeometry>
        </mxCell>
        <mxCell id="3i_acZr-SQVOogtZjHbJ-2" value="&lt;span style=&quot;font-size: 18pt ; font-family: &amp;#34;verdana&amp;#34; ; color: rgb(51 , 51 , 51)&quot;&gt;σ&lt;/span&gt;" style="rounded=0;whiteSpace=wrap;html=1;strokeWidth=1;fillColor=#F5EE9C;" vertex="1" parent="1">
          <mxGeometry x="260" y="239" width="40" height="30" as="geometry" />
        </mxCell>
        <mxCell id="3i_acZr-SQVOogtZjHbJ-35" value="" style="endArrow=none;html=1;strokeWidth=4;" edge="1" parent="1" target="3i_acZr-SQVOogtZjHbJ-2">
          <mxGeometry width="50" height="50" relative="1" as="geometry">
            <mxPoint x="280" y="290" as="sourcePoint" />
            <mxPoint x="280" y="50" as="targetPoint" />
          </mxGeometry>
        </mxCell>
        <mxCell id="3i_acZr-SQVOogtZjHbJ-38" value="" style="endArrow=block;html=1;strokeWidth=4;endFill=1;" edge="1" parent="1">
          <mxGeometry width="50" height="50" relative="1" as="geometry">
            <mxPoint x="160" y="130" as="sourcePoint" />
            <mxPoint x="640" y="130" as="targetPoint" />
          </mxGeometry>
        </mxCell>
        <mxCell id="3i_acZr-SQVOogtZjHbJ-39" value="&lt;font style=&quot;font-size: 22px&quot;&gt;x&lt;/font&gt;" style="ellipse;whiteSpace=wrap;html=1;aspect=fixed;strokeColor=#000000;strokeWidth=1;fillColor=#F9D1D1;" vertex="1" parent="1">
          <mxGeometry x="265" y="117" width="30" height="30" as="geometry" />
        </mxCell>
        <mxCell id="3i_acZr-SQVOogtZjHbJ-42" value="" style="endArrow=none;html=1;strokeWidth=4;" edge="1" parent="1">
          <mxGeometry width="50" height="50" relative="1" as="geometry">
            <mxPoint x="150" y="290" as="sourcePoint" />
            <mxPoint x="240" y="290" as="targetPoint" />
          </mxGeometry>
        </mxCell>
        <mxCell id="3i_acZr-SQVOogtZjHbJ-43" value="&lt;font face=&quot;cambria math&quot;&gt;&lt;span style=&quot;font-size: 24px&quot;&gt;&lt;b&gt;x&lt;sub&gt;t&lt;/sub&gt;&lt;/b&gt;&lt;/span&gt;&lt;/font&gt;" style="text;html=1;strokeColor=none;fillColor=none;align=center;verticalAlign=middle;whiteSpace=wrap;rounded=0;sketch=0;" vertex="1" parent="1">
          <mxGeometry x="240" y="350" width="40" height="20" as="geometry" />
        </mxCell>
        <mxCell id="3i_acZr-SQVOogtZjHbJ-44" value="&lt;font face=&quot;cambria math&quot;&gt;&lt;span style=&quot;font-size: 24px&quot;&gt;&lt;b&gt;h&lt;sup&gt;t-1&lt;/sup&gt;&lt;/b&gt;&lt;/span&gt;&lt;/font&gt;" style="text;html=1;strokeColor=none;fillColor=none;align=center;verticalAlign=middle;whiteSpace=wrap;rounded=0;sketch=0;" vertex="1" parent="1">
          <mxGeometry x="120" y="300" width="60" height="20" as="geometry" />
        </mxCell>
        <mxCell id="3i_acZr-SQVOogtZjHbJ-52" value="&lt;span style=&quot;font-size: 22px&quot;&gt;＋&lt;/span&gt;" style="ellipse;whiteSpace=wrap;html=1;aspect=fixed;strokeColor=#000000;strokeWidth=1;fillColor=#F9D1D1;" vertex="1" parent="1">
          <mxGeometry x="395" y="116" width="30" height="30" as="geometry" />
        </mxCell>
        <mxCell id="3i_acZr-SQVOogtZjHbJ-55" value="" style="endArrow=block;html=1;strokeWidth=4;endFill=1;entryX=0.5;entryY=1;entryDx=0;entryDy=0;" edge="1" parent="1" source="3i_acZr-SQVOogtZjHbJ-61" target="3i_acZr-SQVOogtZjHbJ-52">
          <mxGeometry width="50" height="50" relative="1" as="geometry">
            <mxPoint x="447" y="290" as="sourcePoint" />
            <mxPoint x="446.65999999999997" y="147" as="targetPoint" />
          </mxGeometry>
        </mxCell>
        <mxCell id="3i_acZr-SQVOogtZjHbJ-60" value="" style="endArrow=block;html=1;strokeWidth=4;entryX=0;entryY=0.5;entryDx=0;entryDy=0;endFill=1;" edge="1" parent="1">
          <mxGeometry width="50" height="50" relative="1" as="geometry">
            <mxPoint x="340" y="251" as="sourcePoint" />
            <mxPoint x="395" y="213" as="targetPoint" />
            <Array as="points">
              <mxPoint x="340" y="213" />
            </Array>
          </mxGeometry>
        </mxCell>
        <mxCell id="3i_acZr-SQVOogtZjHbJ-61" value="&lt;span style=&quot;font-size: 22px&quot;&gt;×&lt;/span&gt;" style="ellipse;whiteSpace=wrap;html=1;aspect=fixed;strokeColor=#000000;strokeWidth=1;fillColor=#F9D1D1;" vertex="1" parent="1">
          <mxGeometry x="395" y="197" width="30" height="30" as="geometry" />
        </mxCell>
        <mxCell id="3i_acZr-SQVOogtZjHbJ-64" value="" style="endArrow=none;html=1;strokeWidth=4;endFill=0;entryX=0.5;entryY=1;entryDx=0;entryDy=0;" edge="1" parent="1" source="3i_acZr-SQVOogtZjHbJ-73" target="3i_acZr-SQVOogtZjHbJ-61">
          <mxGeometry width="50" height="50" relative="1" as="geometry">
            <mxPoint x="410" y="290" as="sourcePoint" />
            <mxPoint x="409.65999999999985" y="147" as="targetPoint" />
          </mxGeometry>
        </mxCell>
        <mxCell id="3i_acZr-SQVOogtZjHbJ-69" value="&lt;span style=&quot;font-size: 18pt ; font-family: &amp;#34;verdana&amp;#34; ; color: rgb(51 , 51 , 51)&quot;&gt;σ&lt;/span&gt;" style="rounded=0;whiteSpace=wrap;html=1;strokeWidth=1;fillColor=#F5EE9C;" vertex="1" parent="1">
          <mxGeometry x="320" y="239" width="40" height="30" as="geometry" />
        </mxCell>
        <mxCell id="3i_acZr-SQVOogtZjHbJ-72" value="" style="endArrow=none;html=1;strokeWidth=4;entryX=0.5;entryY=1;entryDx=0;entryDy=0;endFill=0;" edge="1" parent="1" target="3i_acZr-SQVOogtZjHbJ-69">
          <mxGeometry width="50" height="50" relative="1" as="geometry">
            <mxPoint x="340" y="290" as="sourcePoint" />
            <mxPoint x="395" y="201" as="targetPoint" />
            <Array as="points" />
          </mxGeometry>
        </mxCell>
        <mxCell id="3i_acZr-SQVOogtZjHbJ-73" value="&lt;span style=&quot;font-size: 16px ; font-family: &amp;#34;verdana&amp;#34; ; color: rgb(51 , 51 , 51)&quot;&gt;tanh&lt;/span&gt;" style="rounded=0;whiteSpace=wrap;html=1;strokeWidth=1;fillColor=#F5EE9C;" vertex="1" parent="1">
          <mxGeometry x="390" y="239" width="40" height="30" as="geometry" />
        </mxCell>
        <mxCell id="3i_acZr-SQVOogtZjHbJ-74" value="" style="endArrow=none;html=1;strokeWidth=4;endFill=0;entryX=0.5;entryY=1;entryDx=0;entryDy=0;" edge="1" parent="1" target="3i_acZr-SQVOogtZjHbJ-73">
          <mxGeometry width="50" height="50" relative="1" as="geometry">
            <mxPoint x="410" y="290" as="sourcePoint" />
            <mxPoint x="410" y="216" as="targetPoint" />
          </mxGeometry>
        </mxCell>
        <mxCell id="3i_acZr-SQVOogtZjHbJ-75" value="&lt;font face=&quot;cambria math&quot;&gt;&lt;span style=&quot;font-size: 24px&quot;&gt;&lt;b&gt;c&lt;sub&gt;t-1&lt;/sub&gt;&lt;/b&gt;&lt;/span&gt;&lt;/font&gt;" style="text;html=1;strokeColor=none;fillColor=none;align=center;verticalAlign=middle;whiteSpace=wrap;rounded=0;sketch=0;" vertex="1" parent="1">
          <mxGeometry x="120" y="97" width="60" height="20" as="geometry" />
        </mxCell>
        <mxCell id="3i_acZr-SQVOogtZjHbJ-76" value="&lt;span style=&quot;font-size: 22px&quot;&gt;×&lt;/span&gt;" style="ellipse;whiteSpace=wrap;html=1;aspect=fixed;strokeColor=#000000;strokeWidth=1;fillColor=#F9D1D1;" vertex="1" parent="1">
          <mxGeometry x="497" y="205" width="30" height="30" as="geometry" />
        </mxCell>
        <mxCell id="3i_acZr-SQVOogtZjHbJ-77" value="&lt;span style=&quot;font-size: 18pt ; font-family: &amp;#34;verdana&amp;#34; ; color: rgb(51 , 51 , 51)&quot;&gt;σ&lt;/span&gt;" style="rounded=0;whiteSpace=wrap;html=1;strokeWidth=1;fillColor=#F5EE9C;" vertex="1" parent="1">
          <mxGeometry x="450" y="239" width="40" height="30" as="geometry" />
        </mxCell>
        <mxCell id="3i_acZr-SQVOogtZjHbJ-81" value="" style="endArrow=block;html=1;strokeWidth=4;exitX=0.5;exitY=0;exitDx=0;exitDy=0;endFill=1;entryX=0;entryY=0.5;entryDx=0;entryDy=0;" edge="1" parent="1" source="3i_acZr-SQVOogtZjHbJ-77" target="3i_acZr-SQVOogtZjHbJ-76">
          <mxGeometry width="50" height="50" relative="1" as="geometry">
            <mxPoint x="460" y="227" as="sourcePoint" />
            <mxPoint x="497.00000000000864" y="212" as="targetPoint" />
            <Array as="points">
              <mxPoint x="470" y="220" />
            </Array>
          </mxGeometry>
        </mxCell>
        <mxCell id="3i_acZr-SQVOogtZjHbJ-83" value="" style="endArrow=none;html=1;strokeWidth=4;exitX=0.5;exitY=0;exitDx=0;exitDy=0;" edge="1" parent="1" source="3i_acZr-SQVOogtZjHbJ-86">
          <mxGeometry width="50" height="50" relative="1" as="geometry">
            <mxPoint x="460" y="196" as="sourcePoint" />
            <mxPoint x="512" y="130" as="targetPoint" />
          </mxGeometry>
        </mxCell>
        <mxCell id="3i_acZr-SQVOogtZjHbJ-86" value="&lt;font style=&quot;font-size: 16px&quot;&gt;tanh&lt;/font&gt;" style="ellipse;whiteSpace=wrap;html=1;sketch=0;strokeColor=#000000;strokeWidth=1;gradientColor=none;fillColor=#F9D1D1;" vertex="1" parent="1">
          <mxGeometry x="492" y="140" width="40" height="30" as="geometry" />
        </mxCell>
        <mxCell id="3i_acZr-SQVOogtZjHbJ-87" value="" style="endArrow=none;html=1;strokeWidth=4;exitX=0.5;exitY=0;exitDx=0;exitDy=0;startArrow=block;startFill=1;" edge="1" parent="1" source="3i_acZr-SQVOogtZjHbJ-76" target="3i_acZr-SQVOogtZjHbJ-86">
          <mxGeometry width="50" height="50" relative="1" as="geometry">
            <mxPoint x="512" y="186" as="sourcePoint" />
            <mxPoint x="512" y="130" as="targetPoint" />
          </mxGeometry>
        </mxCell>
        <mxCell id="3i_acZr-SQVOogtZjHbJ-89" value="" style="endArrow=none;html=1;strokeWidth=4;entryX=0.5;entryY=1;entryDx=0;entryDy=0;startArrow=block;startFill=1;" edge="1" parent="1">
          <mxGeometry width="50" height="50" relative="1" as="geometry">
            <mxPoint x="650" y="290" as="sourcePoint" />
            <mxPoint x="512" y="235" as="targetPoint" />
            <Array as="points">
              <mxPoint x="512" y="290" />
            </Array>
          </mxGeometry>
        </mxCell>
        <mxCell id="3i_acZr-SQVOogtZjHbJ-90" value="&lt;font face=&quot;cambria math&quot;&gt;&lt;span style=&quot;font-size: 24px&quot;&gt;&lt;b&gt;c&lt;sub&gt;t&lt;/sub&gt;&lt;/b&gt;&lt;/span&gt;&lt;/font&gt;" style="text;html=1;strokeColor=none;fillColor=none;align=center;verticalAlign=middle;whiteSpace=wrap;rounded=0;sketch=0;" vertex="1" parent="1">
          <mxGeometry x="620" y="97" width="60" height="20" as="geometry" />
        </mxCell>
        <mxCell id="3i_acZr-SQVOogtZjHbJ-91" value="&lt;font face=&quot;cambria math&quot;&gt;&lt;span style=&quot;font-size: 24px&quot;&gt;&lt;b&gt;h&lt;sub&gt;t&lt;/sub&gt;&lt;/b&gt;&lt;/span&gt;&lt;/font&gt;" style="text;html=1;strokeColor=none;fillColor=none;align=center;verticalAlign=middle;whiteSpace=wrap;rounded=0;sketch=0;" vertex="1" parent="1">
          <mxGeometry x="630" y="300" width="60" height="20" as="geometry" />
        </mxCell>
        <mxCell id="3i_acZr-SQVOogtZjHbJ-92" value="&lt;font face=&quot;cambria math&quot;&gt;&lt;span style=&quot;font-size: 24px&quot;&gt;&lt;b&gt;f&lt;sub&gt;t&lt;/sub&gt;&lt;/b&gt;&lt;/span&gt;&lt;/font&gt;" style="text;html=1;strokeColor=none;fillColor=none;align=center;verticalAlign=middle;whiteSpace=wrap;rounded=0;sketch=0;" vertex="1" parent="1">
          <mxGeometry x="220" y="190" width="60" height="20" as="geometry" />
        </mxCell>
        <mxCell id="3i_acZr-SQVOogtZjHbJ-93" value="&lt;font face=&quot;cambria math&quot;&gt;&lt;span style=&quot;font-size: 24px&quot;&gt;&lt;b&gt;i&lt;sub&gt;t&lt;/sub&gt;&lt;/b&gt;&lt;/span&gt;&lt;/font&gt;" style="text;html=1;strokeColor=none;fillColor=none;align=center;verticalAlign=middle;whiteSpace=wrap;rounded=0;sketch=0;" vertex="1" parent="1">
          <mxGeometry x="310" y="190" width="60" height="20" as="geometry" />
        </mxCell>
        <mxCell id="3i_acZr-SQVOogtZjHbJ-94" value="&lt;font face=&quot;cambria math&quot;&gt;&lt;span style=&quot;font-size: 24px&quot;&gt;&lt;b&gt;o&lt;sub&gt;t&lt;/sub&gt;&lt;/b&gt;&lt;/span&gt;&lt;/font&gt;" style="text;html=1;strokeColor=none;fillColor=none;align=center;verticalAlign=middle;whiteSpace=wrap;rounded=0;sketch=0;" vertex="1" parent="1">
          <mxGeometry x="432" y="190" width="60" height="20" as="geometry" />
        </mxCell>
      </root>
    </mxGraphModel>
  </diagram>
</mxfile>
